<?xml version="1.0" standalone="no"?>
<!DOCTYPE svg PUBLIC "-//W3C//DTD SVG 1.1//EN" "http://www.w3.org/Graphics/SVG/1.1/DTD/svg11.dtd" >
<svg xmlns="http://www.w3.org/2000/svg">
<metadata>Generated by IcoMoon</metadata>
<defs>
<font id="icomoon" horiz-adv-x="1024">
<font-face units-per-em="1024" ascent="960" descent="-64" />
<missing-glyph horiz-adv-x="1024" />
<glyph unicode="&#x20;" horiz-adv-x="512" d="" />
<glyph unicode="&#xe900;" glyph-name="1" d="M489.993 132.406c-5.737-3.369-12.145-7.123-19.063-11.167-19.762-11.551-39.646-23.102-58.368-33.876-1.568-0.902-1.568-0.902-3.137-1.804-43.42-24.957-74.388-42.099-81.843-45.173-1.854-0.759-1.854-0.759-3.729-1.505-8.64-3.415-18.032-6.662-27.442-9.603-5.645-1.764-9.983-3.018-12.328-3.653-42.605-13.226-72.058 8.644-71.296 51.824-0.054 2.317-0.054 2.317-0.123 4.065-0.319 9.569 0.048 20.771 1.573 30.915 0.229 1.524 0.481 2.991 0.755 4.395 1.705 8.727 8.395 43.527 18.507 96.237 4.166 21.717 8.589 44.783 13.010 67.848 4.716 24.603 4.716 24.603 5.894 30.754l3.108 16.22-12.546 10.74c-1.131 0.968-1.131 0.968-6.29 5.399-5.020 4.316-10.615 9.139-16.642 14.349-17.213 14.883-34.425 29.882-50.474 44.033-1.7 1.5-1.7 1.5-3.399 3-33.946 29.988-57.775 51.924-64.795 59.874-8.681 9.831-16.192 19.074-22.491 27.428-3.677 4.876-6.069 8.271-7.136 9.884-26.807 36.021-15.999 68.74 25.025 80.304l38.785 10.933-23.29 32.884c2.912-5.171 2.912-5.171 3.238-5.978-5.121-33.239-1.704-29.5-12.745-35.163 6.467 1.571 19.407 4.3 40.045 7.95 15.058 2.663 40.207 6.392 72.898 10.881 5.061 0.695 10.278 1.405 15.637 2.127 23.246 3.135 48.168 6.386 73.092 9.564 8.725 1.112 16.827 2.136 24.096 3.047 7.472 0.934 7.472 0.934 9.118 1.138l15.991 1.979 6.524 14.734c0.644 1.455 1.891 4.256 3.644 8.17 2.929 6.54 6.218 13.831 9.789 21.684 10.198 22.427 20.609 44.849 30.609 65.74 2.057 4.298 4.079 8.493 6.062 12.576 13.186 27.153 24.264 48.581 32.339 62.271 11.288 19.136 18.648 31.039 22.628 36.867-1.3-1.281-1.3-1.281-11.815-6.363-11.521-2.015-11.521-2.015-26.643 6.214-8.24 11.015-8.24 11.015-9.167 17.53-0.276 4.528-0.276 4.528-0.018 6.862 0.159 1.165-24.944-127.312-24.944-127.312l76.364 107.409c25.022 35.194 60.498 35.191 85.14 0.032l2.233-2.795c3.6-3.965 11.843-15.764 23.857-37.671 6.254-11.403 20.207-39.719 39.197-79.282 0.696-1.45 0.696-1.45 1.392-2.901 9.398-19.596 19.388-40.602 29.324-61.609 3.478-7.354 6.7-14.182 9.587-20.309 2.965-6.299 2.965-6.299 3.618-7.689l6.815-14.51 15.942-1.685c2.073-0.219 6.005-0.645 11.529-1.262 9.232-1.030 19.524-2.216 30.61-3.54 31.657-3.781 63.306-7.908 92.79-12.24 21.998-3.232 41.925-6.454 59.27-9.628 20.285-3.712 33.203-6.528 39.94-8.452-7.277 2.079-8.859 2.826-13.013 16.775l4.426-14.862 14.889-4.332c41.382-12.040 52.617-45.003 26.94-79.429l-14.218-19.063 16.243-17.37c-3.992 5.006-3.992 5.006-6.184 10.37-4.324 12.906-3.376 14.738 0.263 19.551-4.343-5.744-13.1-15.824-27.153-30.868-11.052-11.831-31.501-30.96-58.533-55.004-3.182-2.827-3.182-2.827-6.373-5.651-16.837-14.889-34.904-30.547-52.974-45.996-6.327-5.409-12.201-10.405-17.47-14.865-3.154-2.67-5.411-4.573-6.587-5.561l-13.213-11.102 3.745-16.847c1.169-5.258 3.223-14.624 5.867-26.892 4.408-20.452 8.815-41.4 12.925-61.631 1.002-4.933 1.976-9.772 2.919-14.505 8.289-41.621 13.737-72.896 15.121-88.112 1.388-15.268 2.18-26.087 2.486-33.032 0.148-3.363 0.127-4.848 0.407-3.292 0.43 2.489 0.43 2.489 3.062 8.46 6.79 10.331 6.79 10.331 28.912 14.186l-33.167 9.824 0.573-38.388c0.648-43.369-28.8-65.428-70.126-52.518-8.651 1.931-22.447 6.256-44.157 15.373-10.569 4.438-39.969 20.548-80.426 43.853-2.365 1.363-2.365 1.363-4.729 2.728-18.793 10.854-38.671 22.493-58.367 34.134-6.895 4.075-13.275 7.859-18.98 11.254-5.856 3.488-5.856 3.488-7.134 4.252l-14.491 8.665-14.547-8.571c-1.294-0.762-1.294-0.762-7.187-4.225zM497.020 87.712c1.328-0.794 1.328-0.794 7.243-4.317 5.752-3.422 12.178-7.234 19.124-11.339 19.848-11.731 39.884-23.463 58.86-34.423 2.391-1.38 2.391-1.38 4.784-2.76 43.139-24.85 73.032-41.23 86.797-47.010 25.046-10.517 42.353-15.944 51.942-17.926 75.614-23.767 142.475 26.317 141.249 108.374l-28.441-0.425-7.877-27.332c25.877 3.046 25.877 3.046 32.754 13.491 2.738 6.201 2.738 6.201 3.293 9.268 1.209 6.723 0.612 20.303-2.229 51.543-1.633 17.954-7.281 50.375-15.983 94.071-0.957 4.807-1.945 9.716-2.961 14.719-4.159 20.474-8.611 41.635-13.063 62.292-1.558 7.229-3.005 13.88-4.304 19.803-1.338 6.083-1.338 6.083-1.642 7.448l-9.468-27.95c1.249 1.049 3.537 2.979 6.747 5.696 5.337 4.518 11.281 9.573 17.681 15.044 18.293 15.639 36.59 31.497 53.692 46.62 3.25 2.877 3.25 2.877 6.496 5.761 28.295 25.168 49.688 45.179 62.296 58.676 40.148 42.978 45.394 49.915 39.261 68.222-2.209 5.403-2.209 5.403-6.206 10.415l-20.776-19.427 22.801-17.006c49.498 66.365 22.705 144.977-56.649 168.065l-7.947-27.312 27.261 8.118c-5.604 18.819-11.217 20.422-71.209 31.401-18.067 3.306-38.63 6.632-61.242 9.953-30.049 4.414-62.184 8.605-94.312 12.442-11.238 1.342-21.676 2.545-31.048 3.59-5.638 0.629-9.679 1.067-11.858 1.298l22.757-16.195c-0.665 1.417-0.665 1.417-3.646 7.748-2.898 6.153-6.133 13.007-9.624 20.389-9.976 21.093-20.009 42.188-29.456 61.887-0.7 1.46-0.7 1.46-1.401 2.92-19.52 40.666-33.645 69.331-40.603 82.019-14.084 25.682-24.88 41.135-31.619 48.557l-21.059-19.12 23.293 16.326c-47.255 67.422-130.351 67.429-178.091 0.281l23.183-16.482 27.917-5.453c0.591 4.471 0.591 4.471 0.31 9.091-0.944 6.604-0.944 6.604-9.236 17.687-15.197 8.275-15.197 8.275-26.849 6.24-10.88-5.253-10.88-5.253-13.273-8.039-2.069-2.14-3.958-4.628-6.444-8.269-4.853-7.107-12.77-19.909-24.646-40.044-9.043-15.331-20.707-37.892-34.513-66.323-2.031-4.182-4.099-8.473-6.201-12.865-10.179-21.266-20.741-44.012-31.082-66.754-3.618-7.955-6.95-15.344-9.922-21.979-1.787-3.991-3.054-6.836-3.743-8.392l22.515 16.713c-1.686-0.209-1.686-0.209-9.206-1.149-7.307-0.916-15.448-1.945-24.214-3.062-25.051-3.194-50.104-6.462-73.503-9.618-5.403-0.729-10.664-1.444-15.771-2.146-33.384-4.584-59.080-8.394-75.067-11.222-22.336-3.95-36.879-7.018-45.502-9.443-4.359-1.226-7.64-2.391-10.595-3.906-12.212-6.263-9.117-2.876-14.641-35.176 0.768-2.005 0.768-2.005 1.328-3.207l25.568 12.464-7.717 27.377c-79.668-22.458-105.7-101.266-56.109-167.766 5.292-8.074 16.838-23.387 33.503-42.259 9.306-10.539 33.468-32.782 69.776-64.855 1.719-1.518 1.719-1.518 3.438-3.035 16.203-14.287 33.548-29.402 50.89-44.397 6.068-5.247 11.704-10.104 16.762-14.454 5.208-4.473 5.208-4.473 6.381-5.477l-9.438 26.961c-1.178-6.15-1.178-6.15-5.893-30.75-4.421-23.063-8.843-46.125-12.973-67.65-10.124-52.769-16.821-87.607-18.506-96.234-0.437-2.239-0.83-4.522-1.179-6.849-2.126-14.147-2.597-28.533-2.173-41.266 0.099-2.543 0.099-2.543 0.146-3.353-1.493-79.892 65.529-129.66 144.020-105.257 2.002 0.523 7.022 1.973 13.41 3.97 10.645 3.327 21.308 7.013 31.385 10.996 2.246 0.894 2.246 0.894 4.501 1.817 10.979 4.527 41.288 21.304 88.506 48.444 1.581 0.909 1.581 0.909 3.162 1.819 18.846 10.845 38.838 22.458 58.703 34.070 6.951 4.063 13.391 7.837 19.159 11.224 5.932 3.486 5.932 3.486 7.26 4.268l-29.038 0.095z" />
<glyph unicode="&#xe901;" glyph-name="2" d="M497.020 87.712c1.328-0.794 1.328-0.794 7.243-4.317 5.752-3.422 12.178-7.234 19.124-11.339 19.848-11.731 39.884-23.463 58.86-34.423 2.391-1.38 2.391-1.38 4.784-2.76 43.139-24.85 73.032-41.23 86.797-47.010 25.046-10.517 42.353-15.944 51.942-17.926 75.614-23.767 142.475 26.317 141.249 108.374l-28.441-0.425-7.877-27.332c25.877 3.046 25.877 3.046 32.754 13.491 2.738 6.201 2.738 6.201 3.293 9.268 1.209 6.723 0.612 20.303-2.229 51.543-1.633 17.954-7.281 50.375-15.983 94.071-0.957 4.807-1.945 9.716-2.961 14.719-4.159 20.474-8.611 41.635-13.063 62.292-1.558 7.229-3.005 13.88-4.304 19.803-1.338 6.083-1.338 6.083-1.642 7.448l-9.468-27.95c1.249 1.049 3.537 2.979 6.747 5.696 5.337 4.518 11.281 9.573 17.681 15.044 18.293 15.639 36.59 31.497 53.692 46.62 3.25 2.877 3.25 2.877 6.496 5.761 28.295 25.168 49.688 45.179 62.296 58.676 40.148 42.978 45.394 49.915 39.261 68.222-2.209 5.403-2.209 5.403-6.206 10.415l-20.776-19.427 22.801-17.006c49.498 66.365 22.705 144.977-56.649 168.065l-7.947-27.312 27.261 8.118c-5.604 18.819-11.217 20.422-71.209 31.401-18.067 3.306-38.63 6.632-61.242 9.953-30.049 4.414-62.184 8.605-94.312 12.442-11.238 1.342-21.676 2.545-31.048 3.59-5.638 0.629-9.679 1.067-11.858 1.298l22.757-16.195c-0.665 1.417-0.665 1.417-3.646 7.748-2.898 6.153-6.133 13.007-9.624 20.389-9.976 21.093-20.009 42.188-29.456 61.887-0.7 1.46-0.7 1.46-1.401 2.92-19.52 40.666-33.645 69.331-40.603 82.019-14.084 25.682-24.88 41.135-31.619 48.557l-21.059-19.12 23.293 16.326c-47.255 67.422-130.351 67.429-178.091 0.281l23.183-16.482 27.917-5.453c0.591 4.471 0.591 4.471 0.31 9.091-0.944 6.604-0.944 6.604-9.236 17.687-15.197 8.275-15.197 8.275-26.849 6.24-10.88-5.253-10.88-5.253-13.273-8.039-2.069-2.14-3.958-4.628-6.444-8.269-4.853-7.107-12.77-19.909-24.646-40.044-9.043-15.331-20.707-37.892-34.513-66.323-2.031-4.182-4.099-8.473-6.201-12.865-10.179-21.266-20.741-44.012-31.082-66.754-3.618-7.955-6.95-15.344-9.922-21.979-1.787-3.991-3.054-6.836-3.743-8.392l22.515 16.713c-1.686-0.209-1.686-0.209-9.206-1.149-7.307-0.916-15.448-1.945-24.214-3.062-25.051-3.194-50.104-6.462-73.503-9.618-5.403-0.729-10.664-1.444-15.771-2.146-33.384-4.584-59.080-8.394-75.067-11.222-22.336-3.95-36.879-7.018-45.502-9.443-4.359-1.226-7.64-2.391-10.595-3.906-12.212-6.263-9.117-2.876-14.641-35.176 0.768-2.005 0.768-2.005 1.328-3.207l25.568 12.464-7.717 27.377c-79.668-22.458-105.7-101.266-56.109-167.766 5.292-8.074 16.838-23.387 33.503-42.259 9.306-10.539 33.468-32.782 69.776-64.855 1.719-1.518 1.719-1.518 3.438-3.035 16.203-14.287 33.548-29.402 50.89-44.397 6.068-5.247 11.704-10.104 16.762-14.454 5.208-4.473 5.208-4.473 6.381-5.477l-9.438 26.961c-1.178-6.15-1.178-6.15-5.893-30.75-4.421-23.063-8.843-46.125-12.973-67.65-10.124-52.769-16.821-87.607-18.506-96.234-0.437-2.239-0.83-4.522-1.179-6.849-2.126-14.147-2.597-28.533-2.173-41.266 0.099-2.543 0.099-2.543 0.146-3.353-1.493-79.892 65.529-129.66 144.020-105.257 2.002 0.523 7.022 1.973 13.41 3.97 10.645 3.327 21.308 7.013 31.385 10.996 2.246 0.894 2.246 0.894 4.501 1.817 10.979 4.527 41.288 21.304 88.506 48.444 1.581 0.909 1.581 0.909 3.162 1.819 18.846 10.845 38.838 22.458 58.703 34.070 6.951 4.063 13.391 7.837 19.159 11.224 5.932 3.486 5.932 3.486 7.26 4.268l-29.038 0.095z" />
<glyph unicode="&#xe902;" glyph-name="35" d="M512 960c-282.766 0-512-229.234-512-512s229.234-512 512-512 512 229.234 512 512c0 282.766-229.234 512-512 512zM240.896 387.556c-33.394 0-60.444 27.051-60.444 60.444 0 33.365 27.079 60.444 60.444 60.444s60.444-27.051 60.444-60.444c0-33.394-27.079-60.444-60.444-60.444zM512 387.556c-33.394 0-60.444 27.051-60.444 60.444 0 33.365 27.051 60.444 60.444 60.444s60.444-27.051 60.444-60.444c0-33.394-27.051-60.444-60.444-60.444zM783.104 387.556c-33.394 0-60.444 27.051-60.444 60.444 0 33.365 27.079 60.444 60.444 60.444s60.444-27.051 60.444-60.444c0-33.394-27.051-60.444-60.444-60.444z" />
<glyph unicode="&#xe903;" glyph-name="36" d="M512-64c-282.311 0-512 230.002-512 512.711 0 265.671 206.933 490.155 471.097 511.118 34.048 2.588 63.431-22.556 66.105-56.377s-22.556-63.431-56.377-66.105c-200.732-15.929-357.945-186.624-357.945-388.636 0-214.955 174.564-389.831 389.12-389.831s389.12 174.876 389.12 389.831c0 31.659-3.812 63.175-11.292 93.611-8.107 32.939 12.032 66.219 44.999 74.325 32.882 8.078 66.219-12.032 74.325-44.999 9.87-40.021 14.848-81.38 14.848-122.937 0-282.709-229.689-512.711-512-512.711z" />
<glyph unicode="&#xe904;" glyph-name="37" d="M682.695 932.011c0 0-66.276 27.989-171.719 27.989s-174.393-32-174.393-32l343.467-337.778 2.645 341.788zM873.956 809.984v0c-75.036 72.021-134.4 93.127-134.4 93.127v-483.556l237.796 250.453c0 0-30.407 67.982-103.396 139.975zM991.545 618.012l-337.323-340.679h341.333c0 0 28.444 64.654 28.444 168.676 0 103.993-32.455 172.004-32.455 172.004zM729.97-16.014v0c0 0 68.949 30.009 141.938 102.002 73.017 74.012 95.204 134.457 95.204 134.457h-483.556l246.414-236.459zM341.333-35.556c0 0 62.18-28.444 167.623-28.444s174.393 32 174.393 32l-342.016 337.778v-341.333zM150.073 86.016v0c75.008-72.021 134.372-93.127 134.372-93.127v483.556l-237.796-250.453c0 0 30.407-67.982 103.424-139.975zM27.392 618.24c0 0-27.392-66.247-27.392-170.24s32.455-172.004 32.455-172.004l337.465 342.215h-342.528zM292.011 911.986v0c0 0-68.949-27.989-141.938-102.002-73.017-73.984-93.184-134.428-93.184-134.428h483.556l-248.434 236.43z" />
<glyph unicode="&#xe905;" glyph-name="3" d="M951.616 507.016c22.454 21.443 26.198 61.71 8.108 86.878l-100.164 139.362c-23.381 32.531-80.369 61.765-120.351 61.765h-454.356c-39.938 0-96.996-29.271-120.351-61.765l-100.164-139.362c-18.092-25.172-14.335-65.446 8.108-86.878l438.072-418.343c0.617-0.589 2.409-0.588 3.024 0l438.072 418.343zM475.16 51.645l-438.072 418.343c-40.89 39.049-47.331 107.862-14.324 153.788l100.164 139.362c32.98 45.886 105.516 83.084 161.926 83.084h454.356c56.45 0 128.918-37.159 161.926-83.084l100.164-139.362c32.98-45.886 26.61-114.698-14.324-153.788l-438.072-418.343c-20.364-19.447-53.303-19.522-73.745 0zM998.4 539.022v51.2h-972.8v-51.2zM486.4 52.622h51.2v793.6h-51.2z" />
<glyph unicode="&#xe906;" glyph-name="38" d="M936.505 124.928c53.988 46.677 87.495 111.445 87.495 183.125 0 142.251-131.812 257.564-294.4 257.564s-294.4-115.342-294.4-257.564 131.812-257.564 294.4-257.564c50.887 0 98.731 11.292 140.487 31.175l106.098-60.331-39.68 103.595zM627.2 333.796c-21.22 0-38.4 17.294-38.4 38.628s17.18 38.628 38.4 38.628c21.22 0 38.4-17.294 38.4-38.628s-17.18-38.628-38.4-38.628zM832 411.051c21.22 0 38.4-17.294 38.4-38.628s-17.18-38.628-38.4-38.628-38.4 17.294-38.4 38.628c0 21.333 17.18 38.628 38.4 38.628zM716.8 591.36c16.043 0 31.687-1.422 47.076-3.499-25.998 161.991-185.941 286.805-379.876 286.805-212.082 0-384-149.106-384-333.056 0-95.46 46.564-181.333 120.775-242.062l-47.36-123.705 127.915 72.732c54.329-25.515 116.537-40.050 182.67-40.050 17.607 0 34.788 1.394 51.769 3.385-16.725 33.365-26.169 70.172-26.169 108.971 0 149.39 137.529 270.478 307.2 270.478zM512 720.128c28.274 0 51.2-23.068 51.2-51.513s-22.926-51.513-51.2-51.513-51.2 23.068-51.2 51.513 22.926 51.513 51.2 51.513zM256 617.102c-28.274 0-51.2 23.068-51.2 51.513s22.926 51.513 51.2 51.513 51.2-23.068 51.2-51.513-22.926-51.513-51.2-51.513z" />
<glyph unicode="&#xe907;" glyph-name="4" d="M533.569 846.222h190.407c62.862 0 142.564-41.842 178.29-93.867l90.937-132.324c6.428-9.358 11.463-19.57 15.132-30.293h-474.766v256.484zM482.301 846.222h-190.492c-63.118 0-142.649-42.012-178.29-93.867l-90.908-132.324c-6.457-9.358-11.492-19.57-15.161-30.293h474.852v256.484zM533.569 27.722c20.11 4.608 39.196 14.734 54.869 30.35l388.722 387.755c24.178 24.121 37.348 58.226 38.599 92.615h-482.19v-510.72zM482.301 27.708c-20.139 4.608-39.253 14.734-54.926 30.379l-388.722 387.755c-24.206 24.149-37.404 58.197-38.656 92.615h482.304v-510.748z" />
<glyph unicode="&#xe908;" glyph-name="39" d="M88.503 368.991c-36.283-90.256-42.286-176.315-13.063-192.304 20.216-11.096 51.692 14.29 81.32 60.468 11.756-50.575 40.731-95.954 82.165-132.636-43.387-16.889-71.811-44.478-71.811-75.663 0-51.377 76.764-92.855 171.441-92.855 85.419 0 156.18 33.683 169.237 78.062h20.319c13.312-44.379 83.919-78.062 169.438-78.062 94.781 0 171.442 41.48 171.442 92.855 0 31.185-28.374 58.572-71.862 75.663 41.286 36.683 70.459 82.060 82.119 132.636 29.621-46.178 60.951-71.565 81.269-60.468 29.37 15.988 23.516 102.048-13.115 192.304-28.62 70.666-67.404 122.841-96.979 134.534 0.401 4.297 0.75 9.048 0.75 13.595 0 27.387-7.305 52.674-19.762 73.265 0.251 1.647 0.251 3.197 0.251 4.846 0 12.644-2.855 24.389-7.757 34.535-7.456 183.959-121.401 330.235-305.901 330.235-184.454 0-298.547-146.277-306.004-330.236-4.802-10.295-7.756-22.091-7.756-34.685 0-1.65 0-3.197 0.2-4.849-12.208-20.44-19.516-45.725-19.516-73.212 0-4.6 0.248-9.197 0.551-13.695-29.473-11.592-68.406-63.667-96.979-134.332z" />
<glyph unicode="&#xe909;" glyph-name="18" d="M876.8 595.2l-339.2-339.2c-12.8-12.8-32-12.8-44.8 0l-345.6 339.2c-12.8 12.8-12.8 32 0 44.8s32 12.8 44.8 0l320-320 320 320c12.8 12.8 32 12.8 44.8 0s12.8-32 0-44.8z" />
<glyph unicode="&#xe90a;" glyph-name="40" d="M756.122 451.037c-11.71 2.331-19.312 5.814-22.808 10.452s-4.081 8.902-1.76 12.794l3.52 5.802c0.773 0.769 1.559 1.933 2.359 3.496s2.36 4.859 4.682 9.892c2.322 5.034 4.083 10.067 5.28 15.101 1.199 5.033 2.172 11.231 2.921 18.595s0.549 14.344-0.598 20.94c-1.148 6.596-3.495 13.762-7.042 21.497s-8.428 14.717-14.644 20.94c-10.935 10.86-25.179 17.839-42.733 20.94s-35.106 3.297-52.659 0.594c-17.552-2.705-34.131-6.188-49.735-10.452s-28.474-8.33-38.613-12.2l-15.205-6.992c-7.814-2.331-14.256-3.881-19.325-4.65s-8.977-0.573-11.722 0.594c-2.746 1.165-4.893 2.331-6.443 3.495-1.549 1.165-2.136 3.879-1.76 8.146 0.377 4.265 0.762 7.947 1.16 11.045s1.371 7.946 2.921 14.543c1.549 6.597 2.722 11.829 3.519 15.695 0 9.298-0.586 18.013-1.76 26.145s-3.707 17.233-7.603 27.299c-3.894 10.067-9.55 18.2-16.966 24.399s-16.779 11.232-28.090 15.1c-11.311 3.867-25.943 5.033-43.894 3.496-17.953-1.538-38.239-6.186-60.86-13.946-27.314-9.298-55.015-23.047-83.104-41.248-28.088-18.2-52.469-37.18-73.143-56.94-20.673-19.761-39.599-38.94-56.777-57.538-17.177-18.597-30.447-33.711-39.811-45.338l-12.883-18.596c-25.741-33.325-44.854-66.649-57.337-99.973-12.484-33.325-18.338-58.505-17.565-75.54v-24.399c4.695-37.192 16.205-70.517 34.53-99.974 18.326-29.456 40.172-53.284 65.541-71.483s55.218-33.697 89.547-46.492c34.33-12.794 67.299-22.092 98.911-27.895 31.61-5.802 64.968-9.868 100.071-12.2 57.751-4.662 117.636-0.211 179.655 13.353 62.020 13.565 119.758 37.008 173.216 70.332s91.109 73.232 112.953 119.724c13.259 27.125 20.087 52.702 20.488 76.73 0.4 24.027-3.696 43.591-12.285 58.689-8.59 15.1-19.713 28.464-33.37 40.094-13.655 11.63-26.526 20.16-38.613 25.588-12.085 5.429-22.81 8.914-32.17 10.452l0.003-0.104zM399.168 89.56c-84.267-3.869-155.85 12.41-214.75 48.834-58.899 36.424-88.349 82.53-88.348 138.32 0 55.019 29.263 102.477 87.787 142.374 58.525 39.896 130.307 61.79 215.348 65.683 85.041 3.891 156.823-10.055 215.347-41.842 58.525-31.785 87.787-75.177 87.787-130.174 0-55.79-29.848-105.963-89.547-150.52-59.697-44.556-130.894-68.768-213.587-72.636l-0.037-0.040zM365.238 411.539c-22.62-2.331-42.906-7.562-60.86-15.695-17.953-8.134-31.996-17.432-42.132-27.895-10.136-10.465-18.724-21.696-25.767-33.696s-11.923-23.816-14.644-35.445c-2.721-11.629-4.481-22.279-5.28-31.949-0.801-9.669-1.187-17.219-1.162-22.649l1.162-9.299v-4.65c0-2.331 0.786-6.979 2.359-13.946 1.573-6.969 3.719-13.366 6.442-19.193s7.204-12.224 13.446-19.191c6.241-6.967 13.658-12.782 22.247-17.444 51.509-24.794 99.497-32.345 143.964-22.649 44.467 9.694 80.357 31.972 107.673 66.834 10.935 13.166 18.151 29.444 21.648 48.834s2.71 38.953-2.359 58.689c-5.069 19.738-13.846 37.75-26.327 54.042-12.483 16.29-31.010 28.886-55.58 37.787s-52.858 11.419-84.866 7.551l0.037-0.036zM323.103 191.84c-4.694-0.768-9.176-0.967-13.446-0.594-4.27 0.371-8.176 1.154-11.722 2.343s-7.053 2.54-10.524 4.053c-3.47 1.512-6.391 3.644-8.763 6.397s-4.518 5.469-6.442 8.146-3.485 5.777-4.682 9.298c-1.199 3.522-1.785 7.204-1.76 11.045 0 8.53 2.347 16.861 7.041 24.993s11.136 15.113 19.325 20.94c8.189 5.827 17.353 9.124 27.49 9.893 7.016 0.768 13.845 0.57 20.487-0.595 6.642-1.164 12.297-3.098 16.966-5.802s8.765-5.803 12.285-9.299c3.52-3.495 6.056-7.561 7.603-12.199 1.547-4.639 2.334-9.672 2.359-15.101 0-8.529-2.534-16.662-7.603-24.398-5.068-7.738-11.897-14.32-20.487-19.75s-17.953-8.529-28.090-9.299l-0.038-0.071zM422.576 275.524c-5.468-3.867-11.124-5.616-16.967-5.244-5.842 0.373-9.937 2.889-12.284 7.551l-2.36 4.65c-0.773 1.562-1.16 3.112-1.16 4.65v4.65c0 2.331 0.387 4.265 1.16 5.803l2.36 4.65c0.773 1.562 1.947 2.727 3.519 3.495l3.519 4.65c6.243 4.663 12.285 6.596 18.128 5.803s9.937-3.894 12.285-9.299c2.346-3.1 3.319-6.584 2.92-10.452s-1.573-7.549-3.519-11.045c-1.948-3.496-4.482-6.793-7.603-9.892l0.003 0.032zM838.066 518.467c4.694 0 8.989 1.165 12.883 3.496 3.894 2.329 7.016 5.23 9.363 8.702s3.909 7.154 4.682 11.045c0.774 0.769 1.162 1.934 1.162 3.496 9.361 88.345-21.848 138.716-93.631 151.114-21.074 3.867-40.586 4.252-58.537 1.152-5.468 0-10.149-1.351-14.044-4.053s-7.216-6.185-9.962-10.452c-2.746-4.265-4.107-8.716-4.081-13.353 0-7.76 2.734-14.343 8.203-19.748s12.097-8.121 19.887-8.146c60.871 13.96 93.641-5.417 98.31-58.131 1.573-13.167 0.786-25.565-2.359-37.193 0-7.761 2.734-14.344 8.203-19.75 5.467-5.406 12.097-8.121 19.886-8.145l0.036-0.036zM818.179 846.211c-34.331 7.76-80.372 6.21-138.123-4.651-0.773 0-1.559-0.383-2.359-1.152l-1.16-2.343-1.16-1.152c-8.59-2.331-15.617-7.178-21.086-14.543-5.467-7.365-8.201-15.312-8.201-23.84 0-11.629 3.906-21.311 11.722-29.048 7.814-7.738 17.177-11.617 28.090-11.641h3.519c0.774 0 2.534 0.383 5.28 1.152s5.669 1.351 8.763 1.747c3.096 0.396 6.416 1.177 9.962 2.343s6.667 2.331 9.364 3.496c2.696 1.164 7.964 1.747 15.804 1.747s17.402-0.583 28.688-1.747c11.285-1.165 23.77-4.066 37.453-8.703s27.339-10.452 40.972-17.444c13.631-6.992 27.289-16.675 40.972-29.048s25.58-26.704 35.692-42.994c20.3-45.723 24.206-89.895 11.722-132.518 0-0.769-0.199-1.55-0.598-2.344s-0.985-2.727-1.76-5.802-1.562-5.976-2.36-8.703c-0.798-2.727-1.585-6.21-2.359-10.452-0.774-4.24-1.162-7.922-1.16-11.045 0-6.967 1.948-12.781 5.842-17.443 3.896-4.662 8.777-7.959 14.644-9.893s12.698-2.901 20.488-2.9c21.847 0 34.718 13.179 38.613 39.536 9.363 30.225 14.631 59.087 15.804 86.585 1.173 27.499-0.773 51.71-5.842 72.637s-12.672 40.489-22.808 58.691c-10.136 18.2-21.846 33.697-35.129 46.49s-28.114 24.423-44.492 34.886-32.184 18.795-47.415 24.993c-15.23 6.198-31.036 11.232-47.415 15.1h0.034z" />
<glyph unicode="&#xe90b;" glyph-name="42" d="M524.694 85.184c198.529 0 359.669 162.862 359.669 364.009s-161.141 364.009-359.669 364.009c-198.529 0-359.669-162.862-359.669-364.009s161.141-364.009 359.669-364.009zM524.694 38.639c-224.346 0-406.215 183.812-406.215 410.555s181.869 410.555 406.215 410.555c224.346 0 406.215-183.812 406.215-410.555s-181.869-410.555-406.215-410.555zM341.865 126.061c-11.131 6.427-25.365 2.613-31.791-8.518l-53.706-93.022c-6.427-11.131-2.613-25.365 8.518-31.791s25.365-2.613 31.791 8.518l53.706 93.022c6.427 11.131 2.613 25.365-8.518 31.791zM716.852 128.261c11.131 6.427 25.365 2.613 31.791-8.518l53.706-93.022c6.427-11.131 2.613-25.365-8.518-31.791s-25.365-2.613-31.791 8.518l-53.706 93.022c-6.427 11.131-2.613 25.365 8.518 31.791zM115.193 726.547c1.498 4.542 5.164 13.366 11.339 25.024 10.467 19.761 24.129 39.571 41.287 58.032 39.394 42.383 90.994 71.273 157.093 80.817 12.721 1.837 21.545 13.638 19.708 26.36s-13.638 21.545-26.36 19.708c-77.104-11.133-138.188-45.332-184.535-95.196-34.509-37.127-54.218-74.337-62.737-100.166-4.026-12.206 2.606-25.365 14.812-29.391s25.365 2.606 29.391 14.812zM953.011 741.126c-8.519 25.829-28.228 63.039-62.737 100.166-46.347 49.864-107.431 84.064-184.535 95.196-12.721 1.837-24.523-6.987-26.36-19.708s6.987-24.523 19.708-26.36c66.099-9.544 117.699-38.433 157.093-80.817 17.159-18.461 30.82-38.271 41.287-58.032 6.175-11.658 9.841-20.482 11.339-25.024 4.026-12.206 17.185-18.838 29.391-14.812s18.838 17.185 14.812 29.391zM516.72 733.424c12.853 0 23.273-10.42 23.273-23.273v-289.363c0-12.853-10.42-23.273-23.273-23.273s-23.273 10.42-23.273 23.273v289.363c0 12.853 10.42 23.273 23.273 23.273zM714.095 367.011c-3.327-12.415-16.088-19.783-28.503-16.456l-171.349 45.913c-12.415 3.327-19.783 16.088-16.456 28.503s16.088 19.783 28.503 16.456l171.349-45.913c12.415-3.327 19.783-16.088 16.456-28.503z" />
<glyph unicode="&#xe90c;" glyph-name="19" d="M147.2 300.8l339.2 339.2c12.8 12.8 32 12.8 44.8 0l345.6-345.6c12.8-12.8 12.8-32 0-44.8s-32-12.8-44.8 0l-320 326.4-320-320c-12.8-12.8-32-12.8-44.8 0s-12.8 32 0 44.8z" />
<glyph unicode="&#xe90d;" glyph-name="5" d="M859.038 627.201c0 183.8-148.999 332.799-332.799 332.799s-332.799-148.999-332.799-332.799c0-183.8 148.999-332.799 332.799-332.799s332.799 148.999 332.799 332.799zM244.639 627.201c0 155.523 126.076 281.599 281.599 281.599s281.599-126.076 281.599-281.599c0-155.523-126.076-281.599-281.599-281.599s-281.599 126.076-281.599 281.599zM846.657 27.199l-232.782 302.797 40.591 31.205 232.782-302.797c47.466-61.743 17.623-122.404-60.412-122.404h-601.326c-77.794 0-107.783 60.784-60.457 122.345l230.074 299.275 40.591-31.205-230.074-299.275c-21.428-27.874-15.475-39.94 19.866-39.94h601.326c35.547 0 41.41 11.916 19.82 39.999z" />
<glyph unicode="&#xe90e;" glyph-name="41" d="M680.726 636.287l263.83-40.171c62.016-9.442 76.78-53.452 32.891-98.284l-192.752-196.89 45.861-280.113c10.148-61.985-26.173-87.94-81.181-57.631l-236.92 130.54-236.878-130.54c-54.905-30.257-91.337-4.507-81.164 57.631l45.861 280.113-192.738 196.89c-43.878 44.823-29.161 88.835 32.89 98.284l263.817 40.171 119.798 254.401c26.785 56.88 70.121 56.804 96.874 0l119.812-254.401zM386.345 278.267l291.492 214.305v71.141h-366.179v-71.121h273.487l-291.472-214.326v-73.79h384.144v73.79h-291.472z" />
<glyph unicode="&#xe90f;" glyph-name="13" d="M556.8 448l294.4-294.4c12.8-12.8 12.8-32 0-44.8s-32-12.8-44.8 0l-294.4 294.4-294.4-294.4c-12.8-12.8-32-12.8-44.8 0s-12.8 32 0 44.8l294.4 294.4-294.4 294.4c-12.8 12.8-12.8 32 0 44.8s32 12.8 44.8 0l294.4-294.4 294.4 294.4c12.8 12.8 32 12.8 44.8 0s12.8-32 0-44.8l-294.4-294.4z" />
<glyph unicode="&#xe910;" glyph-name="43" d="M1024 608c0-19.2-12.8-32-32-32h-256c-19.2 0-32 19.2-32 32 0 19.2 12.8 32 32 32h179.2c-70.4 153.6-224 256-403.2 256-249.6 0-448-198.4-448-448s198.4-448 448-448c204.8 0 377.6 140.8 428.8 326.4l64-19.2c-64-211.2-256-371.2-492.8-371.2-281.6 0-512 230.4-512 512s230.4 512 512 512c192 0 358.4-108.8 448-262.4v166.4c0 19.2 12.8 32 32 32s32-12.8 32-32v-243.2c0-6.4 0-6.4 0-12.8zM1004.8 313.6c0-17.673-14.327-32-32-32s-32 14.327-32 32c0 17.673 14.327 32 32 32s32-14.327 32-32z" />
<glyph unicode="&#xe911;" glyph-name="44" d="M512.161 6.599c-88.089 0.098-243.768 10.578-297.586 79.837-18.201 23.433-23.613 51.782-15.643 82.017 17.184 65.191 94.745 110.366 214.088 125.532v12.466c-37.977 29.911-67.362 79.609-81.431 138.648-7.116 29.715-17.775 109.78-5.281 167.583 17.415 80.812 68.477 126.085 147.646 130.934 19.053 1.172 56.669 1.368 76.609-0.032 79.201-5.696 130.165-50.935 147.383-130.902 12.494-57.803 1.836-137.867-5.281-167.583-14.102-59.007-43.454-108.737-81.431-138.648v-12.466c119.375-15.199 196.904-60.341 214.088-125.499 0 0 0 0 0-0.033 7.97-30.235 2.558-58.584-15.643-82.017-53.818-69.259-209.497-79.771-297.519-79.837zM513.899 695.739c-13.871 0-27.973-0.325-36.927-0.879-56.343-3.417-89.893-33.654-102.551-92.432-9.675-44.849-2.722-113.685 5.017-146.102 12.43-51.912 39.257-95.687 71.79-117.167 6.854-4.557 10.986-12.172 10.986-20.342v-46.736c0-12.628-9.675-23.141-22.334-24.313-106.945-9.861-181.062-45.011-193.36-91.715-4.133-15.688-1.936-28.349 6.984-39.838 29.484-37.948 126.197-60.699 258.658-60.829 132.394 0.13 229.075 22.88 258.591 60.829 8.887 11.489 11.117 24.117 6.984 39.869-12.33 46.704-86.448 81.854-193.36 91.683-12.66 1.172-22.334 11.685-22.334 24.313v46.736c0 8.17 4.133 15.785 10.986 20.342 32.533 21.449 59.393 65.256 71.79 117.167 7.739 32.417 14.691 101.253 5.017 146.102-12.724 58.974-45.388 88.331-102.813 92.464-8.231 0.586-20.562 0.847-33.123 0.847v0zM975.427 237.322c-10.888 0-20.857 7.258-23.777 18.226-12.33 46.736-86.448 81.886-193.36 91.683-12.66 1.172-22.334 11.684-22.334 24.312v46.769c0 8.17 4.133 15.785 10.986 20.342 32.566 21.449 59.425 65.256 71.788 117.167 7.74 32.417 14.693 101.253 5.018 146.102-12.233 56.631-44.339 85.207-104.092 92.595-13.479 1.659-23.055 13.864-21.35 27.241 1.673 13.409 14.135 22.88 27.449 21.188 80.317-9.927 129.476-53.931 146.103-130.805 12.496-57.802 1.837-137.866-5.279-167.581-14.102-59.007-43.422-108.738-81.431-138.648v-12.499c119.375-15.134 196.871-60.308 214.088-125.467 3.41-13.050-4.427-26.394-17.546-29.812-2.1-0.553-4.198-0.814-6.264-0.814zM48.829 237.322c-2.066 0-4.165 0.261-6.264 0.781-13.118 3.417-20.989 16.761-17.546 29.813 17.218 65.191 94.746 110.364 214.088 125.467v12.497c-38.009 29.911-67.361 79.609-81.431 138.648-7.116 29.748-17.808 109.813-5.313 167.614 16.627 76.843 65.788 120.878 146.103 130.805 13.249 1.496 25.778-7.811 27.449-21.188 1.705-13.377-7.871-25.582-21.349-27.241-59.754-7.388-91.86-35.964-104.093-92.595-9.675-44.849-2.722-113.685 5.018-146.102 12.397-51.912 39.224-95.687 71.788-117.167 6.855-4.557 10.986-12.172 10.986-20.342v-46.769c0-12.628-9.675-23.14-22.333-24.312-106.946-9.829-181.064-44.979-193.362-91.683-2.886-10.968-12.856-18.226-23.743-18.226z" />
<glyph unicode="&#xe912;" glyph-name="20" d="M136.533 422.4l349.867-341.333c17.067-17.067 42.667-17.067 59.733 0s17.067 42.667 0 59.733l-315.733 307.2 324.267 315.733c17.067 17.067 17.067 42.667 0 59.733s-42.667 17.067-59.733 0l-349.867-341.333c-17.067-17.067-17.067-42.667-8.533-59.733zM469.333 422.4l349.867-341.333c17.067-17.067 42.667-17.067 59.733 0s17.067 42.667 0 59.733l-315.733 307.2 324.267 315.733c17.067 17.067 17.067 42.667 0 59.733s-42.667 17.067-59.733 0l-349.867-341.333c-25.6-17.067-25.6-42.667-8.533-59.733z" />
<glyph unicode="&#xe913;" glyph-name="21" d="M913.067 405.333l-358.4-358.4c-17.067-17.067-42.667-17.067-59.733 0s-17.067 42.667 0 59.733l332.8 332.8-341.333 324.267c-17.067 17.067-17.067 42.667 0 59.733s42.667 17.067 59.733 0l358.4-358.4c17.067-17.067 17.067-42.667 8.533-59.733zM571.733 405.333l-358.4-358.4c-17.067-17.067-42.667-17.067-59.733 0s-17.067 42.667 0 59.733l332.8 332.8-341.333 324.267c-17.067 17.067-17.067 42.667 0 59.733s42.667 17.067 59.733 0l358.4-358.4c17.067-17.067 17.067-42.667 8.533-59.733z" />
<glyph unicode="&#xe914;" glyph-name="45" d="M512 874.667c235.264 0 426.667-191.403 426.667-426.667s-191.403-426.667-426.667-426.667-426.667 191.403-426.667 426.667 191.403 426.667 426.667 426.667zM512 960c-282.752 0-512-229.248-512-512s229.248-512 512-512 512 229.248 512 512-229.248 512-512 512v0zM320 618.667c-35.328 0-64-28.672-64-64s28.672-64 64-64c35.328 0 64 28.672 64 64s-28.672 64-64 64v0zM512 149.333c-129.621 0-256 82.901-256 233.259 0 12.587 9.557 22.741 21.333 22.741s21.333-10.155 21.333-22.741c0-125.269 110.635-190.592 213.333-190.592zM512 149.333c128.896 0 256 82.901 256 233.259 0 12.587-9.557 22.741-21.333 22.741s-21.333-10.155-21.333-22.741c0-125.269-113.28-190.592-213.333-190.592zM618.667 490.667c-11.776 0-21.333 9.557-21.333 21.333 0 59.819 65.579 106.667 149.333 106.667 11.776 0 21.333-9.557 21.333-21.333s-9.557-21.333-21.333-21.333c-57.856 0-106.667-29.312-106.667-64 0-11.776-9.557-21.333-21.333-21.333zM746.667 490.667h-128c-11.733 0-21.333 9.6-21.333 21.333v0c0 11.733 9.6 21.333 21.333 21.333h128c11.733 0 21.333-9.6 21.333-21.333v0c0-11.733-9.6-21.333-21.333-21.333z" />
<glyph unicode="&#xe915;" glyph-name="46" d="M279.133 960h465.734c154.159 0 279.133-125.068 279.133-279.133v-465.734c0-154.159-125.068-279.133-279.133-279.133h-465.734c-154.159 0-279.133 125.068-279.133 279.133v465.734c0 154.159 125.068 279.133 279.133 279.133zM93.091 215.133c0-102.679 83.316-186.042 186.042-186.042h465.734c102.679 0 186.042 83.316 186.042 186.042v465.734c0 102.679-83.316 186.042-186.042 186.042h-465.734c-102.679 0-186.042-83.316-186.042-186.042v-465.734zM495.523 268.614c-4.189 4.189-6.796 10.007-6.796 16.477 0 12.847 10.426 23.273 23.273 23.273 25.693 0 46.545 20.852 46.545 46.545s-20.852 46.545-46.545 46.545-46.545-20.852-46.545-46.545c0-12.847-10.426-23.273-23.273-23.273s-23.273 10.426-23.273 23.273c0 51.433 41.658 93.091 93.091 93.091s93.091-41.658 93.091-93.091c0-27.788-12.195-52.783-31.511-69.818 19.316-17.036 31.511-42.031 31.511-69.818 0-51.433-41.658-93.091-93.091-93.091s-93.091 41.658-93.091 93.091c0 12.847 10.426 23.273 23.273 23.273s23.273-10.426 23.273-23.273c0-25.693 20.852-46.545 46.545-46.545s46.545 20.852 46.545 46.545c0 25.693-20.852 46.545-46.545 46.545-6.423 0-12.241 2.607-16.477 6.796zM318.417 611.607l-80.105-78.662c-8.751-8.657-8.471-22.388 0.326-31.046 8.564-8.425 22.993-8.797 31.604-0.279l96.349 94.627c4.329 4.282 6.47 9.775 6.47 15.313-0.14 5.632-2.188 11.217-6.47 15.407l-96.349 94.627c-8.797 8.657-22.807 8.378-31.604-0.279-8.564-8.425-8.937-22.575-0.279-31.046l80.058-78.662zM705.071 611.607l79.267 78.662c8.704 8.657 8.425 22.388-0.279 31.046-8.471 8.425-22.761 8.797-31.279 0.279l-95.372-94.627c-4.282-4.282-6.423-9.775-6.377-15.313 0.093-5.679 2.141-11.217 6.377-15.453l95.372-94.627c8.704-8.657 22.575-8.378 31.279 0.279 8.471 8.425 8.844 22.575 0.279 31.046l-79.267 78.708z" />
<glyph unicode="&#xe916;" glyph-name="6" d="M355.287 337.717l-190.369-267.596c-48.23-67.796-15.944-134.121 65.451-134.121h591.822c81.532 0 113.808 66.146 65.451 134.121l-190.396 267.634c-50.825-27.647-109.085-43.354-171.013-43.354-61.901 0-120.136 15.693-170.945 43.317zM526.232 345.6c169.662 0 307.2 137.538 307.2 307.2s-137.538 307.2-307.2 307.2c-169.662 0-307.2-137.538-307.2-307.2s137.538-307.2 307.2-307.2z" />
<glyph unicode="&#xe917;" glyph-name="7" d="M963.765 448c0 249.503-202.262 451.765-451.765 451.765s-451.765-202.262-451.765-451.765c0-249.503 202.262-451.765 451.765-451.765s451.765 202.262 451.765 451.765zM0 448c0 282.77 229.23 512 512 512s512-229.23 512-512c0-282.77-229.23-512-512-512s-512 229.23-512 512z" />
<glyph unicode="&#xe918;" glyph-name="8" d="M512-64c-282.77 0-512 229.23-512 512s229.23 512 512 512c282.77 0 512-229.23 512-512s-229.23-512-512-512zM448.006 273.87c-11.764-11.764-30.616-11.768-42.48 0.096l-170.379 170.379c-11.762 11.762-30.831 11.762-42.593 0s-11.762-30.831 0-42.593l170.379-170.379c35.392-35.392 92.383-35.379 127.666-0.096l340.847 340.847c11.762 11.762 11.762 30.831 0 42.593s-30.831 11.762-42.593 0l-340.847-340.847z" />
<glyph unicode="&#xe919;" glyph-name="9" d="M912.402 547.142c38.261-10.816 44.185-33.768 15.888-62.065l-453.382-453.391c-28.203-28.203-51.295-22.21-62.064 15.889l-147.666 522.376-29.884-15.105c-67.656-34.197-127.759-34.903-157.299-5.363-46.271 46.272-15.857 161.884 77.378 255.12s208.845 123.651 255.116 77.379c29.537-29.538 28.834-89.635-5.355-157.287l-15.102-29.884 522.371-147.67zM454.378 699.807c43.766 86.602 44.76 171.556-4.874 221.191-73.439 73.44-221.203 34.567-333.147-77.379s-150.817-259.713-77.378-333.153c49.638-49.639 134.599-48.641 221.205-4.866l-38.993 17.117 138.557-490.154c22.241-78.68 96.197-97.875 154.176-39.895l453.382 453.391c58.044 58.045 38.986 131.88-39.895 154.179l-490.151 138.561 17.118-38.992zM968.8-39.162c-8.049 12.191 18.058 38.487 30.362 30.363l-321.365 212.184 4.307-42.531 117.047 117.049-42.531 4.307 212.18-321.371zM784.039 340.823l-164.856-164.859 349.577-230.81c17.922-11.833 31.080-16.17 46.684-0.452 15.505 15.618 11.179 28.699-0.599 46.538l-230.806 349.583z" />
<glyph unicode="&#xe91a;" glyph-name="10" d="M195.839 580.734l183.826 183.826 531.077-189.273c59.2-21.099 71.335-74.060 26.69-118.705l-433.615-433.615c-44.46-44.46-97.6-32.528-118.705 26.69l-189.273 531.077zM832.283 272.729l170.040-278.954c31.382-51.483 15.248-67.876-36.396-36.396l-278.954 170.040 145.31 145.31zM422.657 925.608c65.201-65.201 31.222-204.89-75.893-312.005s-246.805-141.094-312.005-75.893c-65.201 65.201-31.222 204.89 75.893 312.005s246.805 141.094 312.005 75.893z" />
<glyph unicode="&#xe91b;" glyph-name="11" d="M992.97 448c0 265.632-215.337 480.97-480.97 480.97s-480.97-215.337-480.97-480.97c0-265.632 215.337-480.97 480.97-480.97s480.97 215.337 480.97 480.97zM0 448c0 282.77 229.23 512 512 512s512-229.23 512-512c0-282.77-229.23-512-512-512s-512 229.23-512 512zM533.942 448l164.37 164.37c6.447 6.447 6.252 16.075 0.193 22.134-5.882 5.882-15.969 5.973-22.134-0.193l-164.37-164.37-164.37 164.37c-6.447 6.447-16.075 6.252-22.134 0.193-5.882-5.882-5.973-15.969 0.193-22.134l164.37-164.37-164.37-164.37c-6.447-6.447-6.252-16.075-0.193-22.134 5.882-5.882 15.969-5.973 22.134 0.193l164.37 164.37 164.37-164.37c6.447-6.447 16.075-6.252 22.134-0.193 5.882 5.882 5.973 15.969-0.193 22.134l-164.37 164.37z" />
<glyph unicode="&#xe91c;" glyph-name="12" d="M557.255 448l135.745-135.745c12.508-12.508 12.604-32.691 0.020-45.275-12.497-12.497-32.688-12.567-45.275 0.020l-135.745 135.745-135.745-135.745c-12.508-12.508-32.691-12.604-45.275-0.020-12.497 12.497-12.567 32.688 0.020 45.275l135.745 135.745-135.745 135.745c-12.508 12.508-12.604 32.691-0.020 45.275 12.497 12.497 32.688 12.567 45.275-0.020l135.745-135.745 135.745 135.745c12.508 12.508 32.691 12.604 45.275 0.020 12.497-12.497 12.567-32.688-0.020-45.275l-135.745-135.745zM512-64c282.77 0 512 229.23 512 512s-229.23 512-512 512c-282.77 0-512-229.23-512-512s229.23-512 512-512z" />
<glyph unicode="&#xe91d;" glyph-name="14" d="M256 608v-672l-64 64h502.741c49.421 0 117.348 37.055 141.926 77.363l2.744 4.5 3.444 3.991c-0.034-0.039 1.281 1.657 3.777 5.25 5.031 7.243 10.898 16.697 17.43 28.521 19.674 35.615 39.91 82.602 59.309 142.232 16.728 51.421 26.985 99.582 32.026 143.59 3.36 29.334 4.004 52.687 3.185 69.12-0.089 1.781-0.446 8.354-0.446 8.354-0.074 10.585-11.231 27.729-19.726 31.259l-4.727 1.964-4.355 2.69c0.411-0.254-0.991 0.495-4.254 1.974-6.967 3.158-15.888 6.49-26.819 9.722-21.124 6.246-46.213 11.065-75.432 13.735-5.788 0.529-11.728 0.996-17.807 1.401-43.303 2.889-90.283 2.572-134.822 0.28-12.827-0.66-22.165-1.31-27.007-1.719l-110.097-9.302 46.708 100.131c1.324 2.838 3.854 8.481 7.183 16.284 5.613 13.16 11.233 27.238 16.446 41.555 5.030 13.813 9.399 27.092 12.912 39.456 5.899 20.764 8.99 37.757 8.99 48.213 0 76.634-45.89 115.438-98.859 115.438-25.969 0-47.328-21.491-47.345-49.557-0.232-10.204-1.728-25.61-5.47-44.674-6.149-31.333-16.674-62.746-32.891-92.596-12.355-22.743-27.572-43.629-45.936-62.104-18.25-18.36-38.987-34.462-61.696-48.56-47.553-29.522-94.266-45.889-127.669-53.077l50.537 62.568zM652.69 642.712c-8.388-20.766-14.893-34.712-14.893-34.712s14.499 1.225 37.534 2.27l33.703 1.13c0 0 77.951 0.407 119.612-3.4 91.683-8.379 134.318-34.719 134.318-34.719 33.029-13.723 58.923-54.506 59.169-89.916 0 0 9.265-96.315-37.902-241.307s-92.921-198.016-92.921-198.016c-36.725-60.228-125.862-108.043-196.569-108.043h-502.741v672c0 0 93.821 20.188 157.437 84.188s65.703 155.712 65.703 155.712c0 61.912 49.969 112.101 111.328 112.101 61.485 0 162.859-43.992 162.859-179.438 0-30.223-12.208-71.908-24.74-106.735-5.914-18.007-11.897-31.115-11.897-31.115zM64 63.98c0-35.335 28.65-63.98 64-63.98h64.061c0.118 0-0.061 608-0.061 608l64-64h-128c-35.265 0-64-28.708-64-63.98v-416.040zM128 608h128v-608.174c0-35.25-28.375-63.826-63.939-63.826h-64.061c-70.692 0-128 57.294-128 127.98v416.040c0 70.681 57.451 127.98 128 127.98z" />
<glyph unicode="&#xe91e;" glyph-name="15" d="M192 608h-78.222c-62.578 0-113.778-51.029-113.778-114.005v-443.989c0-62.948 50.944-114.005 113.778-114.005h78.222v672zM256-64h453.262c62.692 0 141.767 42.268 174.933 95.943 0 0 52.878 65.138 100.039 210.119s38.087 248.69 38.087 248.69c-0.37 31.317-23.637 67.612-52.736 79.929 0 0-49.266 28.928-140.942 37.319s-190.834 0-190.834 0c0 0 51.513 110.478 51.513 172.572 0 135.424-101.376 179.428-162.844 179.428-61.355 0-111.332-50.176-111.332-112.1 0 0-2.105-91.705-65.707-155.705-28.786-28.985-63.772-48.953-93.44-62.18v-694.016z" />
<glyph unicode="&#xe91f;" glyph-name="16" d="M293.399 426.326c-11.987 11.987-11.993 31.355 0 43.347l437.535 437.535c12.077 12.077 12.077 31.657 0 43.734s-31.657 12.077-43.734 0l-437.535-437.535c-36.152-36.152-36.134-94.681 0-130.816l437.535-437.535c12.077-12.077 31.657-12.077 43.734 0s12.077 31.657 0 43.734l-437.535 437.535z" />
<glyph unicode="&#xe920;" glyph-name="17" d="M669.15 426.326c11.987 11.987 11.993 31.355 0 43.347l-437.535 437.535c-12.077 12.077-12.077 31.657 0 43.734s31.657 12.077 43.734 0l437.535-437.535c36.152-36.152 36.134-94.681 0-130.816l-437.535-437.535c-12.077-12.077-31.657-12.077-43.734 0s-12.077 31.657 0 43.734l437.535 437.535z" />
<glyph unicode="&#xe921;" glyph-name="22" d="M512-64c-282.77 0-512 229.23-512 512s229.23 512 512 512c282.77 0 512-229.23 512-512s-229.23-512-512-512zM405.574 433.604c-7.94 7.94-7.936 20.855 0 28.791l202.828 202.828c7.998 7.998 7.998 20.965 0 28.963s-20.965 7.998-28.963 0l-202.828-202.828c-23.928-23.928-23.94-62.778 0-86.717l202.828-202.828c7.998-7.998 20.965-7.998 28.963 0s7.998 20.965 0 28.963l-202.828 202.828z" />
<glyph unicode="&#xe922;" glyph-name="23" d="M465.455 494.545h-418.795c-25.741 0-46.66-20.839-46.66-46.545 0-25.886 20.89-46.545 46.66-46.545h418.795v-418.795c0-25.741 20.839-46.66 46.545-46.66 25.886 0 46.545 20.89 46.545 46.66v418.795h418.795c25.741 0 46.66 20.839 46.66 46.545 0 25.886-20.89 46.545-46.66 46.545h-418.795v418.795c0 25.741-20.839 46.66-46.545 46.66-25.886 0-46.545-20.89-46.545-46.66v-418.795z" />
<glyph unicode="&#xe923;" glyph-name="24" d="M540.893 759.36l338.921-338.921c10.524-10.524 27.586-10.524 38.109 0s10.524 27.586 0 38.109l-343.159 343.159c-16.309 16.309-37.963 24.158-59.415 23.52-0.465 0.024-0.933 0.036-1.404 0.036-1.781 0-3.522-0.173-5.206-0.503-17.529-1.958-34.536-9.638-47.952-23.054l-343.159-343.159c-10.524-10.524-10.524-27.586 0-38.109s27.586-10.524 38.109 0l331.261 331.261v-788.752c0-14.883 12.065-26.947 26.947-26.947s26.947 12.065 26.947 26.947v796.412zM163.63 960c-14.883 0-26.947-12.065-26.947-26.947s12.065-26.947 26.947-26.947h700.632c14.883 0 26.947 12.065 26.947 26.947s-12.065 26.947-26.947 26.947h-700.632z" />
<glyph unicode="&#xe924;" glyph-name="25" d="M281.124 744.202l533.252-360.86c13.311-9.039 28.444-13.334 43.397-13.334 24.959 0 49.49 12.030 64.51 34.38 24.014 35.707 14.615 84.185-20.979 108.267l-640.018 433.111c-4.241 3.004-8.809 5.598-13.651 7.718-33.684 14.821-74.251 3.878-95.565-27.863-7.436-11.056-11.668-23.337-12.912-35.738-16.824-145.976-25.37-294.649-25.37-441.868 0-146.961 8.516-295.349 25.281-441.123 0.887-9.844 3.655-19.626 8.41-28.796 7.36-14.233 18.903-25.75 32.82-33.116 11.777-6.050 23.928-8.965 36.189-8.978 2.943 0.003 5.952 0.183 8.962 0.517 4.629 0.539 9.115 1.476 13.429 2.771 0.295 0.089 0.59 0.18 0.885 0.273 7.803 2.445 15.027 6.070 21.496 10.647l458.505 308.973c35.639 23.992 45.128 72.47 21.181 108.222-23.902 35.752-72.223 45.285-107.862 21.249l-351.937-237.154c-7.905 98.619-11.895 197.905-11.895 296.515 0 98.51 3.982 197.683 11.871 296.188z" />
<glyph unicode="&#xe925;" glyph-name="26" d="M984.615 706.188c21.752 0 39.385 17.633 39.385 39.385s-17.633 39.385-39.385 39.385h-945.231c-21.752 0-39.385-17.633-39.385-39.385s17.633-39.385 39.385-39.385h945.231zM354.462 36.65c0-21.752 17.633-39.385 39.385-39.385s39.385 17.633 39.385 39.385v472.615c0 21.752-17.633 39.385-39.385 39.385s-39.385-17.633-39.385-39.385v-472.615zM590.769 36.65c0-21.752 17.633-39.385 39.385-39.385s39.385 17.633 39.385 39.385v472.615c0 21.752-17.633 39.385-39.385 39.385s-39.385-17.633-39.385-39.385v-472.615zM630.154 863.727v0c0-21.752-17.633-39.385-39.385-39.385h-157.538c-21.752 0-39.385 17.633-39.385 39.385v0c0 21.752 17.633 39.385 39.385 39.385h157.538c21.752 0 39.385-17.633 39.385-39.385zM157.538 706.188l78.769 78.769v-669.563c0-43.513 35.192-78.744 78.564-78.744h394.257c43.297 0 78.564 35.288 78.564 78.744v669.563l78.769-78.769h-708.923zM866.462 784.957v-669.563c0-86.992-70.566-157.514-157.333-157.514h-394.257c-86.893 0-157.333 70.516-157.333 157.514v669.563h708.923z" />
<glyph unicode="&#xe926;" glyph-name="27" d="M891.798 534.737c50.572-14.228 58.396-44.295 21.025-81.638l-405.142-404.829c-37.216-37.188-67.519-29.321-81.701 21.008l-140.58 498.912-39.398-19.934c-64.789-32.781-121.035-33.51-147.369-7.196-41.945 41.913-12.691 152.552 77.823 242.996s201.238 119.676 243.183 77.763c26.332-26.312 25.605-82.507-7.195-147.241l-19.947-39.367 499.301-140.473zM477.25 681.791c45.43 89.661 46.58 178.563-6.248 231.35-77.747 77.687-230.769 37.288-345.909-77.763s-155.571-267.955-77.823-345.643c52.832-52.791 141.81-51.638 231.546-6.234l-51.367 22.541 128.612-456.436c29.24-103.771 126.553-129.032 202.984-52.661l405.142 404.829c76.592 76.532 51.344 173.555-52.701 202.827l-456.794 128.514 22.56-51.326zM959.069-51.974c14.184-14.173 37.18-14.173 51.363 0s14.184 37.151 0 51.323l-245.58 245.39c-14.184 14.173-37.18 14.173-51.363 0s-14.184-37.151 0-51.323l245.58-245.39z" />
<glyph unicode="&#xe927;" glyph-name="28" d="M300.030 76.403c167.96-97.003 382.425-70.26 521.616 68.931 168.806 168.806 168.806 442.494 0 611.299s-442.494 168.806-611.299 0c-138.828-138.828-165.824-352.575-69.632-520.399l16.744-29.212-80.486-241.459c-0.074-0.222 0.161 1.469-0.246 5.401-0.956 9.232-5.485 19.467-14.012 27.945-8.483 8.434-18.646 12.875-27.782 13.798-3.872 0.391-5.538 0.158-5.331 0.227l241.144 80.381 29.285-16.913zM53.373-58.382c-39.53-13.177-60.994 7.888-47.717 47.717l69.839 209.516c-111.107 193.844-83.875 445.368 81.696 610.938 198.163 198.163 519.449 198.163 717.612 0s198.163-519.449 0-717.612c-165.978-165.978-418.333-192.936-612.369-80.873l-209.061-69.687zM316.822 612.571h413.46c20.759 0 37.587-16.828 37.587-37.587s-16.828-37.587-37.587-37.587h-413.46c-20.759 0-37.587 16.828-37.587 37.587s16.828 37.587 37.587 37.587zM316.822 387.048h263.111c20.759 0 37.587-16.828 37.587-37.587s-16.828-37.587-37.587-37.587h-263.111c-20.759 0-37.587 16.828-37.587 37.587s16.828 37.587 37.587 37.587zM730.282 387.048c20.759 0 37.587-16.828 37.587-37.587s-16.828-37.587-37.587-37.587c-20.759 0-37.587 16.828-37.587 37.587s16.828 37.587 37.587 37.587z" />
<glyph unicode="&#xe928;" glyph-name="29" d="M950.857 448c0 242.374-196.483 438.857-438.857 438.857s-438.857-196.483-438.857-438.857c0-242.374 196.483-438.857 438.857-438.857s438.857 196.483 438.857 438.857zM0 448c0 282.77 229.23 512 512 512s512-229.23 512-512c0-282.77-229.23-512-512-512s-512 229.23-512 512zM486.14 385.569c-6.618 6.618-10.712 15.761-10.712 25.86v292.571c0 20.198 16.374 36.571 36.571 36.571s36.571-16.374 36.571-36.571v-256h256c20.198 0 36.571-16.374 36.571-36.571s-16.374-36.571-36.571-36.571h-292.571c-10.099 0-19.242 4.093-25.86 10.712z" />
<glyph unicode="&#xe929;" glyph-name="30" d="M841.956 508.952c0 215.892-175.015 390.908-390.908 390.908s-390.908-175.015-390.908-390.908c0-215.892 175.015-390.908 390.908-390.908s390.908 175.015 390.908 390.908zM0 508.952c0 249.107 201.941 451.048 451.048 451.048s451.048-201.941 451.048-451.048c0-249.107-201.941-451.048-451.048-451.048s-451.048 201.941-451.048 451.048zM976.133-39.545c12.489-10.946 31.487-9.696 42.433 2.793s9.696 31.487-2.793 42.433l-153.997 134.976c-12.489 10.946-31.487 9.696-42.433-2.793s-9.696-31.487 2.793-42.433l153.997-134.976z" />
<glyph unicode="&#xe92a;" glyph-name="31" d="M912.018 893.935h-123.995c-15.619 0-28.28 12.738-28.28 28.401v9.263c0 15.685 12.746 28.401 28.28 28.401h207.698c7.789 0 14.843-3.168 19.958-8.287 5.16-5.192 8.322-12.246 8.322-19.993v-207.698c0-15.619-12.738-28.28-28.401-28.28h-9.263c-15.685 0-28.401 12.746-28.401 28.28v122.402l-501.117-501.117c-11.134-11.134-29.166-11.152-40.241-0.077l-6.55 6.55c-11.091 11.091-10.876 29.288 0.077 40.241l501.914 501.914zM891.871 101.018c0-54.616-44.386-98.953-99.046-98.953h-627.714c-54.673 0-99.046 44.391-99.046 99.046v627.714c0 54.659 44.385 99.046 98.953 99.046h313.95c18.243 0 33.032 14.789 33.032 33.032s-14.789 33.032-33.032 33.032h-313.95c-91.055 0-165.018-73.966-165.018-165.111v-627.714c0-91.136 73.946-165.111 165.111-165.111h627.714c91.131 0 165.111 73.899 165.111 165.018v313.95c0 18.243-14.789 33.032-33.032 33.032s-33.032-14.789-33.032-33.032v-313.95z" />
<glyph unicode="&#xe92b;" glyph-name="32" d="M56.889 646.839c0 62.988 51.033 114.050 113.688 114.050h569.069c62.788 0 113.688-51.21 113.688-114.050v-397.678c0-62.988-51.033-114.050-113.688-114.050h-569.069c-62.788 0-113.688 51.21-113.688 114.050v397.678zM455.111 248.889c127.001 0 256 54.526 256 113.778 0 15.709-12.735 28.444-28.444 28.444s-28.444-12.735-28.444-28.444c0 2.4 0.371 3.413 0.261 3.25-1.355-2.003-3.977-4.751-7.77-7.872-9.452-7.775-23.947-16.093-41.771-23.627-42.001-17.753-95.449-28.64-149.832-28.64s-107.831 10.887-149.832 28.64c-17.823 7.534-32.319 15.852-41.771 23.627-3.793 3.12-6.415 5.869-7.77 7.872-0.11 0.163 0.261-0.85 0.261-3.25 0 15.709-12.735 28.444-28.444 28.444s-28.444-12.735-28.444-28.444c0-59.252 128.999-113.778 256-113.778zM597.333 476.444c31.419 0 56.889 25.47 56.889 56.889s-25.47 56.889-56.889 56.889c-31.419 0-56.889-25.47-56.889-56.889s25.47-56.889 56.889-56.889zM341.333 476.444c31.419 0 56.889 25.47 56.889 56.889s-25.47 56.889-56.889 56.889c-31.419 0-56.889-25.47-56.889-56.889s25.47-56.889 56.889-56.889zM56.889 277.333l156.854-49.514 95.67-27.646-189.598-173.798c-34.753-31.857-62.927-19.217-62.927 27.472v223.486zM881.778 891.679c6.802-3.927 9.133-12.626 5.206-19.428l-42.667-73.901c-3.927-6.802-12.626-9.133-19.428-5.206s-9.133 12.626-5.206 19.428l42.667 73.901c3.927 6.802 12.626 9.133 19.428 5.206zM953.238 815.338c5.554-5.554 5.554-14.559 0-20.113l-60.34-60.34c-5.554-5.554-14.559-5.554-20.113 0s-5.554 14.559 0 20.113l60.34 60.34c5.554 5.554 14.559 5.554 20.113 0zM779.934 915.395c7.587-2.033 12.090-9.832 10.057-17.419l-22.086-82.426c-2.033-7.587-9.832-12.090-17.419-10.057s-12.090 9.832-10.057 17.419l22.086 82.426c2.033 7.587 9.832 12.090 17.419 10.057z" />
<glyph unicode="&#xe92c;" glyph-name="33" d="M51.2 206.394c0-56.733 45.805-102.572 102.38-102.572h716.84c56.518 0 102.38 45.916 102.38 102.572v409.257c0 56.733-45.805 102.572-102.38 102.572h-716.84c-56.518 0-102.38-45.916-102.38-102.572v-409.257zM153.58 769.422h716.84c84.82 0 153.58-68.73 153.58-153.772v-409.257c0-84.926-68.778-153.772-153.58-153.772h-716.84c-84.82 0-153.58 68.73-153.58 153.772v409.257c0 84.926 68.778 153.772 153.58 153.772zM640 846.222h102.4c14.138 0 25.6-11.462 25.6-25.6s-11.462-25.6-25.6-25.6h-102.4c-14.138 0-25.6 11.462-25.6 25.6s11.462 25.6 25.6 25.6zM588.8 411.022c0 98.969-80.231 179.2-179.2 179.2s-179.2-80.231-179.2-179.2c0-98.969 80.231-179.2 179.2-179.2s179.2 80.231 179.2 179.2zM179.2 411.022c0 127.246 103.154 230.4 230.4 230.4s230.4-103.154 230.4-230.4c0-127.246-103.154-230.4-230.4-230.4s-230.4 103.154-230.4 230.4zM844.8 564.622c0-14.138-11.462-25.6-25.6-25.6s-25.6 11.462-25.6 25.6c0 14.138 11.462 25.6 25.6 25.6s25.6-11.462 25.6-25.6z" />
<glyph unicode="&#xe92d;" glyph-name="34" d="M689.634 448c0 96.875-78.692 175.407-175.762 175.407s-175.762-78.533-175.762-175.407c0-96.875 78.692-175.407 175.762-175.407s175.762 78.533 175.762 175.407zM408.414 448c0 58.125 47.215 105.244 105.457 105.244s105.457-47.12 105.457-105.244c0-58.125-47.215-105.244-105.457-105.244s-105.457 47.12-105.457 105.244zM153.018 685.287c-11.709-6.747-25.486-30.552-25.486-44.054v-386.466c0-13.493 13.769-37.303 25.486-44.054l335.367-193.233c11.709-6.747 39.256-6.751 50.973 0l335.367 193.233c11.709 6.747 25.486 30.552 25.486 44.054v386.466c0 13.493-13.769 37.303-25.486 44.054l-335.367 193.233c-11.709 6.747-39.256 6.751-50.973 0l-335.367-193.233zM574.51 939.283l335.367-193.233c33.49-19.296 60.639-66.281 60.639-104.817v-386.466c0-38.593-27.198-85.549-60.639-104.817l-335.367-193.233c-33.49-19.296-87.836-19.268-121.278 0l-335.367 193.233c-33.49 19.296-60.639 66.281-60.639 104.817v386.466c0 38.593 27.198 85.549 60.639 104.817l335.367 193.233c33.49 19.296 87.836 19.268 121.278 0z" />
</font>
</defs>
</svg>
